<?xml version="1.0" encoding="UTF-8" standalone="no"?>
<!-- Created with Inkscape (http://www.inkscape.org/) -->

<svg
   width="150mm"
   height="150mm"
   viewBox="0 0 150 150"
   version="1.1"
   id="svg1"
   xml:space="preserve"
   sodipodi:docname="potatohead.svg"
   inkscape:version="1.3.2 (091e20e, 2023-11-25)"
   inkscape:dataloss="true"
   xmlns:inkscape="http://www.inkscape.org/namespaces/inkscape"
   xmlns:sodipodi="http://sodipodi.sourceforge.net/DTD/sodipodi-0.dtd"
   xmlns="http://www.w3.org/2000/svg"
   xmlns:svg="http://www.w3.org/2000/svg"><sodipodi:namedview
     id="namedview1"
     pagecolor="#ffffff"
     bordercolor="#000000"
     borderopacity="0.25"
     inkscape:showpageshadow="2"
     inkscape:pageopacity="0.0"
     inkscape:pagecheckerboard="0"
     inkscape:deskcolor="#d1d1d1"
     inkscape:document-units="mm"
     inkscape:zoom="0.5946522"
     inkscape:cx="490.20251"
     inkscape:cy="467.50016"
     inkscape:window-width="1616"
     inkscape:window-height="785"
     inkscape:window-x="1746"
     inkscape:window-y="104"
     inkscape:window-maximized="0"
     inkscape:current-layer="layer1"
     showborder="true"
     inkscape:export-bgcolor="#ffffff02" /><defs
     id="defs1" /><g
     inkscape:label="Layer 1"
     inkscape:groupmode="layer"
     id="layer1"><path
       id="path1"
       style="display:inline;fill:#000000;fill-opacity:0;stroke:#000000;stroke-width:1.537;stroke-dasharray:none;stroke-opacity:1"
       inkscape:label="path1"
       d="m 111.59283,79.512993 c 2.96877,11.356251 3.49853,21.966747 -3.76909,33.426107 -2.23759,3.52819 -5.24569,6.37429 -8.661948,8.60083 -7.564,4.92986 -17.129014,6.82258 -24.762357,6.35729 -23.860647,-1.45439 -32.793994,-8.56135 -38.991385,-23.2935 -3.126828,-7.433011 -0.233263,-18.876822 1.954248,-27.470628 2.56087,-10.060608 3.948552,-21.378746 6.624256,-28.832436 2.407127,-6.705541 5.75505,-12.03381 10.531915,-15.873884 5.213167,-4.190823 11.388942,-6.326056 20.037214,-6.190044 8.365658,0.131649 12.585918,1.408383 17.485665,3.923022 5.188196,2.662621 8.064692,7.335097 10.180062,11.345229 5.38889,10.215746 5.50681,23.225049 9.37142,38.008014 z"
       sodipodi:nodetypes="ssssssssssss" /><path
       style="fill:#ffffff;fill-opacity:1;stroke:#000000;stroke-width:1.537;stroke-dasharray:none;stroke-opacity:1"
       d="m 72.932524,128.05245 c -7.674458,-0.66658 -12.823608,-1.60185 -17.355409,-3.15236 -7.986589,-2.73255 -13.292715,-7.10465 -17.437984,-14.36846 -1.9496,-3.41631 -3.276942,-6.47615 -3.784246,-8.72361 -1.19867,-5.310322 -0.552432,-11.721887 2.388121,-23.693443 1.13428,-4.617875 1.780836,-7.578337 2.81978,-12.911373 1.114946,-5.723139 1.641278,-8.278795 2.278253,-11.062291 1.948677,-8.515531 4.851958,-14.870819 8.997394,-19.69536 1.482215,-1.725023 4.702478,-4.46252 6.621849,-5.62909 3.533262,-2.147513 7.52851,-3.411066 12.316287,-3.895234 2.071942,-0.209521 8.415657,-0.08337 10.617639,0.210996 5.772897,0.771933 10.916975,2.802793 14.48452,5.718358 2.457089,2.008085 4.466882,4.597756 6.502102,8.378184 3.12166,5.798543 4.34867,10.133683 6.74075,23.815934 1.40135,8.01545 1.90218,10.46383 3.53012,17.257256 0.6542,2.729951 1.08539,5.024902 1.44679,7.700362 0.26582,1.967829 0.26632,8.214569 7.4e-4,10.050501 -1.07273,7.41806 -4.51989,14.69826 -9.263,19.56292 -4.30233,4.41261 -10.85322,7.87972 -17.856867,9.45086 -3.401097,0.76301 -5.211541,0.96595 -8.962638,1.00471 -1.900765,0.0197 -3.738696,0.0109 -4.084291,-0.0189 z"
       id="path2" /><path
       id="path5"
       style="fill:#ffffff;fill-opacity:1;stroke:#000000;stroke-width:1.537;stroke-dasharray:none;stroke-opacity:1"
       d="m 118.04036,56.367741 c 0.21688,5.243023 -0.39218,12.58624 -7.64545,11.321662 -3.23992,-0.56485 -3.40731,-2.332287 -4.38459,-5.736537 -0.38501,-1.341378 -1.2356,-5.893119 -1.3974,-7.380041 -0.56834,-5.222081 1.34992,-7.044367 5.95296,-7.24909 4.60299,-0.204662 7.3203,5.317076 7.47448,9.044006 z"
       sodipodi:nodetypes="ssssss" /><path
       id="path5-7"
       style="fill:#ffffff;fill-opacity:1;stroke:#000000;stroke-width:1.537;stroke-dasharray:none;stroke-opacity:1"
       d="m 28.796792,55.548939 c -0.227822,4.8917 0.411947,11.742831 8.030727,10.563002 3.403192,-0.527016 3.579019,-2.176016 4.605561,-5.352131 0.404405,-1.25149 1.297864,-5.498217 1.467813,-6.885487 C 43.497874,49.002169 41.482945,47.302 36.647942,47.111 c -4.834961,-0.190953 -7.689208,4.960754 -7.85115,8.437939 z"
       sodipodi:nodetypes="ssssss" /><g
       id="g4"
       transform="matrix(5.2722499,0,0,4.5071158,-184.906,-462.56521)"
       style="stroke:#000000;stroke-width:0.315302;stroke-dasharray:none;stroke-opacity:1"><ellipse
         style="fill:#ffffff;fill-opacity:1;stroke:#000000;stroke-width:0.315302;stroke-dasharray:none;stroke-opacity:1"
         id="path3"
         cx="46.774101"
         cy="115.01646"
         rx="2.1690726"
         ry="2.3359244" /><ellipse
         style="fill:#ffffff;fill-opacity:1;stroke:#000000;stroke-width:0.315302;stroke-dasharray:none;stroke-opacity:1"
         id="path3-8"
         cx="50.358402"
         cy="115.11702"
         rx="2.1690726"
         ry="2.3359244" /><circle
         style="fill:#000000;fill-opacity:1;stroke:#000000;stroke-width:0.315302;stroke-dasharray:none;stroke-opacity:1"
         id="path4"
         cx="46.718483"
         cy="115.23893"
         r="1.027475" /><circle
         style="fill:#000000;fill-opacity:1;stroke:#000000;stroke-width:0.315302;stroke-dasharray:none;stroke-opacity:1"
         id="path4-9"
         cx="50.705605"
         cy="115.10191"
         r="1.027475" /></g><path
       style="fill:#ff2727;fill-opacity:1;stroke:#000000;stroke-width:1.537;stroke-linecap:round;stroke-linejoin:round;stroke-dasharray:none;stroke-opacity:0;paint-order:markers fill stroke"
       d="M 68.647617,90.092405 C 62.410579,88.877662 58.227512,84.816221 58.227512,79.975271 c 0,-4.517648 3.524459,-8.258753 9.307627,-9.879777 1.893174,-0.530649 6.139509,-0.530649 8.032683,0 5.790942,1.623198 9.293604,5.346775 9.293604,9.879777 0,4.535005 -3.572446,8.326953 -9.293604,9.864672 -1.700358,0.457015 -5.212123,0.585125 -6.920205,0.252462 z"
       id="path9" /><path
       id="rect12"
       style="fill:#ffffff;fill-opacity:1;stroke:#000000;stroke-width:1.537;stroke-linecap:round;stroke-linejoin:round;stroke-dasharray:none;stroke-opacity:1;paint-order:markers fill stroke"
       d="M 73.870049,17.297839 A 25.072305,15.641022 0 0 0 49.157331,30.560396 h -5.250339 c -1.404417,0 -2.535048,1.065489 -2.535048,2.389014 v 1.365721 c 0,1.323494 1.130631,2.388983 2.535048,2.388983 H 104.0002 c 1.40441,0 2.53507,-1.065489 2.53507,-2.388983 V 32.94941 c 0,-1.323525 -1.13066,-2.389014 -2.53507,-2.389014 H 98.627277 A 25.072305,15.641022 0 0 0 73.870049,17.297839 Z" /><path
       id="rect19"
       style="fill:#000000;fill-opacity:1;stroke:#000000;stroke-width:1.537;stroke-linecap:round;stroke-linejoin:round;stroke-dasharray:none;stroke-opacity:1;paint-order:markers fill stroke"
       d="m 44.481146,106.26871 c 2.504309,0.10898 5.407792,-2.45476 7.407922,-0.89289 1.997845,1.56008 4.660119,1.65424 6.949293,1.20338 2.132456,-0.42 3.938982,-2.35275 6.314321,-0.49786 1.897011,1.48135 4.603819,-3.07686 6.951501,-3.44722 0.897049,-0.14158 2.588559,3.47708 4.118206,3.88673 1.448654,0.38797 3.736546,-1.381 4.964833,-1.05652 2.773177,0.73261 3.167474,1.85253 6.444121,1.40261 2.364519,-0.32467 3.280236,-2.9546 6.193792,-1.03079 4.201337,2.77413 7.508745,0.5478 5.618475,-0.68782 C 90.841592,99.525398 83.504145,92.538457 72.619474,91.70354 61.913826,91.869297 39.558951,106.0545 44.481146,106.26871 Z"
       sodipodi:nodetypes="ssssssssssss" /><path
       id="rect20"
       style="stroke:#000000;stroke-width:1.537;stroke-linecap:round;stroke-linejoin:round;stroke-dasharray:none;paint-order:markers fill stroke"
       d="m 54.832801,41.188307 2.20736,-0.964967 2.735051,0.188749 2.061447,-0.88531 1.549453,0.6532 c 0.578686,0.243939 1.703944,-0.743632 2.737387,-0.334619 0.469744,0.185908 1.055389,1.118258 1.53814,1.332793 0.435404,0.193484 0.494735,0.655592 0.887304,0.971364 0.605184,1.455872 -2.924979,0.715858 -3.81692,0.685756 l -4.444657,0.120471 -5.690764,0.867596 c -1.495934,0.228073 -3.566044,1.477328 -3.688988,0.239965 -0.04565,-0.45953 -0.710784,-0.200346 0.279162,-0.822637 0.505259,-0.317603 0.757569,-1.23182 1.262349,-1.569575 1.169228,-0.782366 1.792359,-0.174653 2.383678,-0.482755 z"
       sodipodi:nodetypes="scccssssscssssss" /><path
       id="rect20-5"
       style="stroke:#000000;stroke-width:1.537;stroke-linecap:round;stroke-linejoin:round;stroke-dasharray:none;paint-order:markers fill stroke"
       d="m 87.901923,40.768566 -2.20736,-0.964967 -2.735053,0.188749 -2.061447,-0.88531 -1.549452,0.653201 c -0.578686,0.243939 -1.703944,-0.743632 -2.737388,-0.334619 -0.469743,0.185908 -1.055388,1.118257 -1.538139,1.332793 -0.435404,0.193484 -0.494735,0.655591 -0.887304,0.971363 -0.605184,1.455873 2.924979,0.715858 3.81692,0.685756 l 4.444656,0.120471 5.690762,0.867597 c 1.495931,0.228073 3.566054,1.477327 3.688995,0.239965 0.04562,-0.459531 0.710775,-0.200346 -0.279172,-0.822637 -0.505254,-0.317604 -0.75757,-1.231821 -1.262337,-1.569576 C 89.11637,40.468986 88.493239,41.0767 87.901923,40.768597 Z"
       sodipodi:nodetypes="scccssssscssssss" /></g></svg>
